<?xml version="1.0" encoding="UTF-8" standalone="no"?>
<svg
   xmlns:dc="http://purl.org/dc/elements/1.1/"
   xmlns:cc="http://creativecommons.org/ns#"
   xmlns:rdf="http://www.w3.org/1999/02/22-rdf-syntax-ns#"
   xmlns:svg="http://www.w3.org/2000/svg"
   xmlns="http://www.w3.org/2000/svg"
   xmlns:sodipodi="http://sodipodi.sourceforge.net/DTD/sodipodi-0.dtd"
   xmlns:inkscape="http://www.inkscape.org/namespaces/inkscape"
   version="1.1"
   id="svg2"
   xml:space="preserve"
   width="1333.3333"
   height="269.78668"
   viewBox="0 0 1333.3333 269.78668"
   sodipodi:docname="Vector File - white logo.eps"><metadata
     id="metadata8"><rdf:RDF><cc:Work
         rdf:about=""><dc:format>image/svg+xml</dc:format><dc:type
           rdf:resource="http://purl.org/dc/dcmitype/StillImage" /></cc:Work></rdf:RDF></metadata><defs
     id="defs6" /><sodipodi:namedview
     pagecolor="#ffffff"
     bordercolor="#666666"
     borderopacity="1"
     objecttolerance="10"
     gridtolerance="10"
     guidetolerance="10"
     inkscape:pageopacity="0"
     inkscape:pageshadow="2"
     inkscape:window-width="640"
     inkscape:window-height="480"
     id="namedview4" /><g
     id="g10"
     inkscape:groupmode="layer"
     inkscape:label="ink_ext_XXXXXX"
     transform="matrix(1.3333333,0,0,-1.3333333,0,269.78667)"><g
       id="g12"
       transform="scale(0.1)"><path
         d="m 3100.02,461.469 c 27.15,0 52.38,4.992 75.72,14.972 23.33,9.989 43.05,23.93 59.18,41.821 16.11,17.898 28.63,38.5 37.55,61.797 8.9,23.312 13.36,48.679 13.36,76.16 0,34.121 -7.22,66.582 -21.64,97.383 -14.44,30.777 -34.79,55.328 -61.08,73.648 -26.31,18.289 -56.85,27.461 -91.63,27.461 -24.62,0 -48.16,-5.832 -70.63,-17.481 -22.49,-11.648 -42.44,-26.851 -59.82,-45.582 -17.39,-18.726 -31.61,-40.136 -42.62,-64.277 V 571.332 c 6.78,-16.66 15.68,-31.852 26.72,-45.57 11.02,-13.742 24.18,-25.203 39.45,-34.34 15.27,-9.152 31.18,-16.422 47.72,-21.84 16.55,-5.402 32.46,-8.113 47.72,-8.113 z m 48.36,-145.071 c -50.9,0 -96.3,11.454 -136.17,34.364 -39.88,22.898 -71.26,54.277 -94.17,94.168 V 329.121 h -148.89 v 929.009 h 169.26 V 871.25 c 24.59,39.871 56.19,71.27 94.81,94.172 38.59,22.906 83.77,34.359 135.53,34.359 43.26,0 82.71,-9.019 118.35,-27.062 35.63,-18.047 66.38,-43.008 92.27,-74.879 25.86,-31.899 46,-68.61 60.44,-110.121 14.41,-41.539 21.64,-85.391 21.64,-131.52 0,-47.84 -8.07,-92.097 -24.18,-132.789 -16.13,-40.68 -38.4,-76.769 -66.82,-108.23 -28.43,-31.461 -61.3,-55.801 -98.62,-72.989 -37.34,-17.179 -78.49,-25.793 -123.45,-25.793"
         style="fill:#ffffff;fill-opacity:1;fill-rule:nonzero;stroke:none"
         id="path14" /><path
         d="m 3574.7,1258.13 h 170.52 V 541.898 c 0,-31.488 5.1,-52.57 15.28,-63.207 10.17,-10.64 23.74,-15.941 40.72,-15.941 15.27,0 29.91,1.691 43.9,5.09 14,3.379 26.51,8.051 37.54,13.988 l 22.91,-131.066 c -22.91,-11.043 -49.43,-19.532 -79.53,-25.461 -30.13,-5.922 -57.91,-8.903 -83.36,-8.903 -53.45,0 -94.81,14.231 -124.08,42.743 -29.27,28.5 -43.9,68.691 -43.9,120.578 v 778.411"
         style="fill:#ffffff;fill-opacity:1;fill-rule:nonzero;stroke:none"
         id="path16" /><path
         d="m 4348.43,491.949 c 9.32,8.281 16.95,17.781 22.9,28.539 5.92,10.762 8.91,19.864 8.91,27.321 v 65.761 c -20.36,8.27 -42.44,14.668 -66.17,19.231 -23.77,4.551 -46.26,6.84 -67.46,6.84 -44.12,0 -80.39,-9.309 -108.8,-27.922 -28.44,-18.61 -42.63,-43.231 -42.63,-73.848 0,-16.551 4.65,-32.473 13.99,-47.781 9.32,-15.32 22.69,-27.5 40.09,-36.61 17.38,-9.109 38.81,-13.64 64.27,-13.64 25.45,0 50.47,4.949 75.08,14.89 24.6,9.918 44.54,22.329 59.82,37.219 z m -414.88,31.922 c 0,42.75 12.09,80.051 36.27,111.91 24.18,31.86 57.69,56.789 100.54,74.797 42.83,18.024 92.68,27.051 149.53,27.051 28,0 56.41,-2.129 85.26,-6.359 28.84,-4.258 53.87,-11.04 75.09,-20.372 v 36.731 c 0,40.801 -12.31,72.461 -36.9,94.973 -24.63,22.488 -61.53,33.738 -110.73,33.738 -37.34,0 -72.53,-6.36 -105.62,-19.09 -33.09,-12.719 -67.88,-30.98 -104.36,-54.719 l -53.45,110.719 c 43.27,29.68 88.02,51.539 134.26,65.539 46.24,14 94.81,20.992 145.72,20.992 95.01,0 169.04,-23.222 222.07,-69.633 53.01,-46.41 79.54,-113.539 79.54,-201.347 V 519.27 c 0,-17.571 3.18,-30.122 9.55,-37.629 6.36,-7.539 16.73,-12.129 31.17,-13.801 V 329.121 c -15.27,-2.539 -29.07,-4.652 -41.36,-6.359 -12.3,-1.692 -22.7,-2.114 -31.17,-1.274 -33.95,0 -59.62,7.434 -77,22.274 -17.4,14.828 -27.8,33.277 -31.18,55.347 l -3.81,34.371 c -29.72,-37.351 -66.18,-66.179 -109.45,-86.539 -43.27,-20.359 -87.39,-30.543 -132.35,-30.543 -44.13,0 -83.79,9.223 -118.99,27.653 -35.22,18.437 -62.8,43.371 -82.72,74.808 -19.94,31.442 -29.91,66.43 -29.91,105.012"
         style="fill:#ffffff;fill-opacity:1;fill-rule:nonzero;stroke:none"
         id="path18" /><path
         d="m 5020.35,316.398 c -55.16,0 -104.15,9.024 -146.99,27.063 -42.85,18.027 -79.54,43.211 -110.08,75.5 -30.54,32.289 -53.89,69 -69.99,110.121 -16.13,41.117 -24.18,84.328 -24.18,129.648 0,61.239 14,117.872 41.99,169.891 28,52.02 68.28,93.539 120.9,124.59 52.6,31.051 114.95,46.57 187.08,46.57 72.1,0 134.04,-15.699 185.79,-47.082 51.75,-31.398 89.93,-72.539 114.54,-123.449 l -165.43,-50.898 c -14.44,24.597 -33.54,43.468 -57.27,56.628 -23.77,13.149 -50.49,19.731 -80.18,19.731 -31.4,0 -60.25,-8.109 -86.54,-24.34 -26.3,-16.23 -47.3,-38.91 -62.99,-68.043 -15.71,-29.129 -23.54,-63.68 -23.54,-103.629 0,-38.289 7.83,-72.41 23.54,-102.359 15.69,-29.961 36.69,-53.27 62.99,-69.91 26.29,-16.641 55.56,-24.961 87.81,-24.961 21.2,0 40.73,3.383 58.54,10.179 17.82,6.782 34.15,16.332 49,28.633 14.84,12.301 25.65,25.66 32.45,40.09 l 165.44,-50.902 c -15.27,-33.09 -37.54,-62.797 -66.81,-89.09 -29.27,-26.297 -63.64,-46.879 -103.08,-61.707 -39.45,-14.84 -83.79,-22.274 -132.99,-22.274"
         style="fill:#ffffff;fill-opacity:1;fill-rule:nonzero;stroke:none"
         id="path20" /><path
         d="m 5883.17,329.121 -194.71,285.399 -91.63,-88.379 v -197.02 h -169.25 v 929.009 h 169.25 V 692.832 l 269.8,296.77 h 180.71 l -248.16,-280.34 265.98,-380.141 h -181.99"
         style="fill:#ffffff;fill-opacity:1;fill-rule:nonzero;stroke:none"
         id="path22" /><path
         d="m 6841.43,848.34 c -52.61,-0.852 -99.26,-10.809 -139.98,-29.899 -40.73,-19.089 -70.43,-47.312 -89.09,-84.632 V 329.121 h -169.25 v 660.481 h 156.53 V 853.43 c 23.74,45.82 54.08,81.871 90.99,108.179 36.91,26.289 75.72,40.721 116.44,43.271 8.47,-0.86 15.28,-1.08 20.37,-0.64 5.09,0.42 9.74,-0.22 13.99,-1.91 V 848.34"
         style="fill:#ffffff;fill-opacity:1;fill-rule:nonzero;stroke:none"
         id="path24" /><path
         d="m 7300.85,491.949 c 9.33,8.281 16.97,17.781 22.91,28.539 5.92,10.762 8.91,19.864 8.91,27.321 v 65.761 c -20.37,8.27 -42.44,14.668 -66.18,19.231 -23.76,4.551 -46.25,6.84 -67.45,6.84 -44.12,0 -80.39,-9.309 -108.81,-27.922 -28.43,-18.61 -42.63,-43.231 -42.63,-73.848 0,-16.551 4.65,-32.473 14,-47.781 9.33,-15.32 22.69,-27.5 40.08,-36.61 17.39,-9.109 38.82,-13.64 64.27,-13.64 25.46,0 50.47,4.949 75.09,14.89 24.59,9.918 44.54,22.329 59.81,37.219 z m -414.87,31.922 c 0,42.75 12.09,80.051 36.27,111.91 24.18,31.86 57.68,56.789 100.54,74.797 42.83,18.024 92.67,27.051 149.52,27.051 28,0 56.42,-2.129 85.27,-6.359 28.83,-4.258 53.87,-11.04 75.09,-20.372 v 36.731 c 0,40.801 -12.31,72.461 -36.91,94.973 -24.62,22.488 -61.53,33.738 -110.72,33.738 -37.34,0 -72.54,-6.36 -105.63,-19.09 -33.08,-12.719 -67.88,-30.98 -104.35,-54.719 l -53.45,110.719 c 43.27,29.68 88.01,51.539 134.26,65.539 46.23,14 94.81,20.992 145.71,20.992 95.02,0 169.05,-23.222 222.08,-69.633 53.01,-46.41 79.54,-113.539 79.54,-201.347 V 519.27 c 0,-17.571 3.17,-30.122 9.54,-37.629 6.36,-7.539 16.74,-12.129 31.18,-13.801 V 329.121 c -15.27,-2.539 -29.07,-4.652 -41.36,-6.359 -12.31,-1.692 -22.71,-2.114 -31.18,-1.274 -33.94,0 -59.61,7.434 -77,22.274 -17.39,14.828 -27.79,33.277 -31.17,55.347 l -3.82,34.371 c -29.71,-37.351 -66.17,-66.179 -109.44,-86.539 -43.28,-20.359 -87.4,-30.543 -132.35,-30.543 -44.13,0 -83.8,9.223 -118.99,27.653 -35.22,18.437 -62.8,43.371 -82.72,74.808 -19.95,31.442 -29.91,66.43 -29.91,105.012"
         style="fill:#ffffff;fill-opacity:1;fill-rule:nonzero;stroke:none"
         id="path26" /><path
         d="m 7993.14,461.469 c 27.14,0 52.37,4.992 75.72,14.972 23.32,9.989 43.05,23.93 59.18,41.821 16.1,17.898 28.63,38.5 37.54,61.797 8.91,23.312 13.36,48.679 13.36,76.16 0,34.121 -7.22,66.582 -21.63,97.383 -14.44,30.777 -34.8,55.328 -61.09,73.648 -26.31,18.289 -56.85,27.461 -91.63,27.461 -24.62,0 -48.16,-5.832 -70.63,-17.481 -22.49,-11.648 -42.43,-26.851 -59.81,-45.582 -17.4,-18.726 -31.62,-40.136 -42.64,-64.277 V 571.332 c 6.78,-16.66 15.7,-31.852 26.73,-45.57 11.02,-13.742 24.18,-25.203 39.45,-34.34 15.27,-9.152 31.18,-16.422 47.73,-21.84 16.54,-5.402 32.45,-8.113 47.72,-8.113 z m 48.36,-145.071 c -50.91,0 -96.31,11.454 -136.17,34.364 -39.89,22.898 -71.27,54.277 -94.17,94.168 V 329.121 h -148.9 v 929.009 h 169.25 V 871.25 c 24.6,39.871 56.2,71.27 94.81,94.172 38.6,22.906 83.78,34.359 135.54,34.359 43.27,0 82.72,-9.019 118.35,-27.062 35.64,-18.047 66.37,-43.008 92.26,-74.879 25.87,-31.899 46.02,-68.61 60.46,-110.121 14.41,-41.539 21.63,-85.391 21.63,-131.52 0,-47.84 -8.08,-92.097 -24.18,-132.789 -16.13,-40.68 -38.4,-76.769 -66.81,-108.23 -28.44,-31.461 -61.31,-55.801 -98.63,-72.989 -37.34,-17.179 -78.49,-25.793 -123.44,-25.793"
         style="fill:#ffffff;fill-opacity:1;fill-rule:nonzero;stroke:none"
         id="path28" /><path
         d="m 8799.96,461.469 c 27.14,0 52.37,4.992 75.72,14.972 23.32,9.989 43.05,23.93 59.17,41.821 16.11,17.898 28.64,38.5 37.54,61.797 8.91,23.312 13.37,48.679 13.37,76.16 0,34.121 -7.22,66.582 -21.64,97.383 -14.43,30.777 -34.8,55.328 -61.08,73.648 -26.31,18.289 -56.85,27.461 -91.63,27.461 -24.62,0 -48.16,-5.832 -70.63,-17.481 -22.49,-11.648 -42.43,-26.851 -59.81,-45.582 -17.4,-18.726 -31.61,-40.136 -42.64,-64.277 V 571.332 c 6.78,-16.66 15.7,-31.852 26.73,-45.57 11.01,-13.742 24.18,-25.203 39.46,-34.34 15.26,-9.152 31.17,-16.422 47.71,-21.84 16.55,-5.402 32.45,-8.113 47.73,-8.113 z m 48.36,-145.071 c -50.91,0 -96.3,11.454 -136.17,34.364 -39.89,22.898 -71.27,54.277 -94.18,94.168 V 329.121 h -148.89 v 929.009 h 169.25 V 871.25 c 24.6,39.871 56.2,71.27 94.82,94.172 38.59,22.906 83.77,34.359 135.53,34.359 43.27,0 82.72,-9.019 118.35,-27.062 35.63,-18.047 66.38,-43.008 92.27,-74.879 25.87,-31.899 46.01,-68.61 60.44,-110.121 14.42,-41.539 21.64,-85.391 21.64,-131.52 0,-47.84 -8.07,-92.097 -24.18,-132.789 -16.13,-40.68 -38.4,-76.769 -66.81,-108.23 -28.44,-31.461 -61.31,-55.801 -98.63,-72.989 -37.35,-17.179 -78.48,-25.793 -123.44,-25.793"
         style="fill:#ffffff;fill-opacity:1;fill-rule:nonzero;stroke:none"
         id="path30" /><path
         d="m 9275.9,329.121 v 666.848 h 169.25 V 329.121 Z m 0,761.019 v 167.99 h 169.25 V 1090.14 H 9275.9"
         style="fill:#ffffff;fill-opacity:1;fill-rule:nonzero;stroke:none"
         id="path32" /><path
         d="m 10000,362.211 c -15.27,-6.801 -32.89,-13.801 -52.82,-21 -19.94,-7.223 -41.57,-13.141 -64.9,-17.82 -23.34,-4.653 -46.89,-6.993 -70.63,-6.993 -32.25,0 -61.52,5.461 -87.81,16.383 -26.31,10.938 -47.3,28.379 -62.99,52.34 -15.71,23.938 -23.55,55.258 -23.55,93.91 v 380.77 h -86.53 v 129.801 h 86.53 v 216.348 h 171.81 V 989.602 h 139.98 V 859.801 H 9809.11 V 536.969 c 0.83,-22.629 7.19,-39.168 19.09,-49.629 11.87,-10.461 27.14,-15.692 45.81,-15.692 16.96,0 33.93,3.192 50.9,9.551 16.97,6.36 30.96,12.09 42,17.18 L 10000,362.211"
         style="fill:#ffffff;fill-opacity:1;fill-rule:nonzero;stroke:none"
         id="path34" /><path
         d="m 2448.29,1537.14 c -37.78,-52.27 -108.16,-77.12 -209.41,-73.66 -115.75,3.97 -231.5,43.64 -290.15,66.93 l -2.24,0.86 c -7.42,2.41 -14.83,4.83 -22.25,7.25 -9.66,3.27 -19.32,6.37 -28.98,9.48 -50.2,16.21 -108.5,33.12 -167.32,32.61 -20.53,-0.18 -40.2,-2.77 -58.65,-7.43 l -0.87,-0.16 c -46.05,-12.94 -82.11,-39.16 -115.05,-64.87 l -1.9,-1.55 -1.73,-1.89 c -14.66,-15.19 -28.29,-32.09 -40.36,-50.03 -12.42,-18.63 -23.63,-38.47 -33.64,-60.03 -1.2,0.69 -2.59,1.56 -3.79,2.41 -0.86,0.53 -1.9,1.21 -2.76,1.73 -3.63,2.07 -7.07,4.14 -10.7,6.21 -1.2,0.69 -2.24,1.38 -3.45,2.07 -4.66,2.59 -9.31,5.17 -13.97,7.59 -3.8,2.07 -7.76,4.14 -11.73,6.04 -0.17,0.17 -0.34,0.34 -0.69,0.34 -1.72,1.04 -3.62,1.9 -5.52,2.77 -0.86,0.33 -1.55,0.86 -2.42,1.2 -2.93,1.38 -5.69,2.76 -8.62,4.14 -1.55,0.69 -2.93,1.38 -4.49,2.07 -0.86,0.34 -1.72,0.69 -2.58,1.03 -3.11,1.39 -6.21,2.77 -9.32,4.15 0,0 -0.17,0 -0.34,0.17 -0.18,0 -0.52,0.17 -0.86,0.34 -2.25,0.86 -4.49,1.9 -6.9,2.93 -2.76,1.04 -5.7,2.25 -8.46,3.28 -0.17,0 -0.34,0.18 -0.52,0.18 -4.65,1.89 -9.31,3.62 -14.14,5.34 -1.38,0.52 -2.76,0.86 -3.97,1.38 -2.76,1.03 -5.52,1.9 -8.28,2.76 -2.58,0.87 -5.17,1.73 -7.76,2.59 -6.38,2.07 -12.59,3.97 -18.97,5.69 -2.07,0.69 -4.49,1.21 -6.56,1.73 -3.1,0.86 -6.21,1.73 -9.14,2.42 -4.14,1.03 -8.11,2.06 -12.08,2.93 1.04,6.04 2.24,11.9 3.45,18.11 29.5,144.21 113.51,276.34 230.63,362.24 16.74,12.43 34.16,23.81 51.58,33.64 187.85,95.91 411.58,93.33 569.94,-6.38 l 1.2,-0.86 c 11.39,-6.56 22.95,-13.63 34.33,-21.05 22.26,-14.66 43.82,-30.88 64.34,-48.13 15.36,-13.1 30.19,-26.73 44.16,-40.88 l 0.87,-0.68 c 110.22,-104.54 163.01,-205.28 150.07,-227.01 z m -781.07,-535.1 -16.39,-3.802 -62.96,-14.648 c -24.67,67.27 -89.36,115.4 -165.26,115.4 -88.66,0 -162.15,-65.56 -174.22,-150.771 h -153.35 c -10.53,87.121 -84.53,154.561 -174.399,154.561 -77.453,0 -143.348,-50.19 -166.461,-119.882 l -84.352,19.492 c 30.016,151.1 127.477,281.17 265.477,352.42 51.922,26.9 107.635,44.49 165.765,52.26 44.51,5.86 89.88,5.86 134.55,0 2.59,-0.34 5.01,-0.69 7.59,-1.2 2.94,-0.35 5.87,-0.87 8.97,-1.39 80.04,-13.28 153.53,-44.5 218.39,-92.46 104.19,-77.1 173.02,-187.5 196.65,-309.98 z m 9.14,-75.04 c 1.03,-22.59 0.52,-45.539 -1.55,-68.469 l -1.38,-16.051 11.04,-11.73 c 63.13,-66.418 97.46,-153 97.46,-243.051 0,-15.699 -1.04,-31.57 -3.28,-47.258 -19.15,-145.07 -127.99,-264.621 -270.48,-297.742 -8.62,-2.07 -17.25,-3.617 -26.22,-5 h -6.04 l -2.07,-1.211 h -0.17 c -0.52,-0.168 -1.03,-0.168 -1.55,-0.168 -1.03,-0.172 -1.9,-0.172 -2.76,-0.351 -1.38,-0.168 -2.93,-0.34 -4.31,-0.508 l -6.21,-0.52 c -2.07,-0.171 -4.14,-0.351 -6.21,-0.519 -3.11,-0.172 -6.21,-0.34 -9.32,-0.524 -20.52,-0.859 -41.05,0.184 -61.58,2.942 -5.18,0.691 -10.35,1.371 -15.35,2.41 -21.05,3.629 -41.75,9.309 -61.59,16.73 -41.22,15.36 -79.17,38.129 -112.29,67.969 l -22.77,20.36 -23.46,-19.329 c -76.59,-62.269 -172.5,-89.351 -270.133,-76.421 -0.864,0.179 -1.727,0.351 -2.59,0.351 -3.621,0.52 -7.242,1.039 -10.692,1.731 -4.14,0.691 -8.281,1.379 -12.25,2.41 -3.625,0.687 -7.074,1.39 -10.523,2.41 -0.863,0 -1.555,0.18 -2.414,0.519 -2.934,0.7 -5.863,1.551 -8.797,2.25 -1.898,0.52 -3.621,1.032 -5.348,1.551 -0.171,0 -0.515,0 -0.691,0.168 l -0.344,0.18 c -6.211,1.723 -12.593,3.793 -18.8,6.031 l -2.59,1.039 c -154.383,56.403 -250.297,215.27 -228.563,378.461 9.145,67.621 37.09,130.75 81.246,182.5 l 9.836,11.391 -1.383,15.008 c -2.41,25.531 -2.929,51.23 -1.379,76.761 l 84.872,-19.672 c 7.933,-89.687 83.144,-160.078 174.914,-160.078 79.519,0 146.799,52.961 168.189,125.41 h 163.7 c 20.35,-75.039 88.66,-130.058 170.08,-130.058 93.84,0 170.6,73.476 175.78,166.109 l 60.72,13.969 17.08,3.969 c 0,-1.379 0.17,-2.578 0.17,-3.969 z m -955.989,526.13 c -156.633,-29.67 -197.34,-176.12 -221.664,-263.58 -2.93,-10.69 -5.863,-21.56 -8.797,-32.26 -1.726,-7.07 -3.621,-14.14 -5.691,-21.05 l -0.52,-2.24 C 470.594,1070.88 439.543,949.602 377.957,848.52 323.797,759.852 262.902,713.449 196.836,710.691 170.613,711.898 113.863,813.68 86.6094,966.852 l -0.1758,1.039 c -4.3125,19.828 -7.5898,40.189 -10.0039,60.719 -10.1758,83.32 -5.1758,166.29 14.8359,247.54 4.3125,19.31 9.8324,38.63 16.2144,57.1 36.051,104.52 102.29,192.5 191.473,254.6 98.152,68.14 219.418,103.5 360.352,105.22 h 8.281 c 95.562,0 177.848,-19.48 244.773,-58.13 18.457,-10.7 35.707,-22.76 51.579,-36.23 38.292,-37.6 68.132,-81.93 86.072,-127.99 -1.03,-0.17 -1.89,-0.34 -2.93,-0.69 -4.48,-0.86 -8.8,-1.89 -13.28,-2.93 -0.35,-0.17 -0.69,-0.17 -1.21,-0.35 -4.83,-1.2 -9.49,-2.41 -14.31,-3.62 -1.73,-0.34 -3.28,-0.86 -4.83,-1.38 -4.66,-1.2 -9.32,-2.58 -13.977,-3.96 -10.696,-3.28 -21.219,-6.9 -31.743,-10.7 -0.859,-0.35 -1.55,-0.69 -2.242,-0.86 -10.523,-3.97 -20.871,-8.28 -31.047,-12.77 -5.351,-2.41 -10.523,-4.83 -15.871,-7.25 -6.382,2.94 -12.765,5.7 -18.976,8.29 -64.168,26.39 -122.817,32.43 -179.223,18.63 z m 1755.349,210.8 c -30.88,48.12 -78.66,104.7 -128.17,151.45 -15.18,15.52 -31.56,30.53 -48.3,44.68 -22.59,19.14 -46.57,37.08 -71.07,53.3 -12.42,8.1 -25.01,15.87 -37.43,23.11 -179.57,112.65 -430.9,116.09 -640.49,8.8 l -1.21,-0.69 c -20.18,-11.39 -40.19,-24.33 -59.51,-38.64 -131.1,-96.26 -225.11,-244.09 -258.06,-405.03 -1.55,-7.07 -2.93,-14.14 -4.14,-21.22 -34.84,3.62 -70.2,4.15 -105.22,1.38 -21.05,61.24 -59,120.57 -109.37,169.57 l -1.55,1.55 c -19.489,16.56 -40.708,31.57 -63.305,44.51 -79.868,46.23 -177.157,68.82 -289.454,67.62 C 357.949,1760.87 126.801,1608.38 40.0313,1356.36 32.7891,1335.48 26.75,1313.92 21.7461,1292.53 0.0117188,1203.52 -5.50781,1111.93 5.53125,1020.15 8.29297,997.559 12.0898,975.309 16.5742,953.75 26.0586,899.93 78.8438,639.449 197.18,639.449 h 1.379 c 189.578,6.903 307.566,251.672 354.832,479.031 1.722,6.73 3.621,13.45 5.519,20.36 2.762,10.52 5.692,21.04 8.625,31.56 29.153,104.88 61.754,193.2 166.981,212.69 l 2.07,0.52 c 32.43,8.1 65.723,7.07 102.633,-3.45 -122.989,-84.87 -209.067,-214.77 -238.91,-361.73 -2.586,-12.76 -4.829,-25.7 -6.555,-38.641 -1.379,-10.699 -2.586,-21.391 -3.449,-32.078 -2.071,-28.289 -2.242,-56.762 -0.344,-85.051 C 542.352,802.98 512.16,731.391 501.984,654.969 475.594,458.5 591.684,267.199 777.98,199.75 c 0.692,-0.352 1.555,-0.691 2.247,-0.859 6.726,-2.422 13.457,-4.661 20.179,-6.731 l 1.727,-0.351 0.176,-0.168 c 0.343,-0.172 0.859,-0.172 1.207,-0.34 20.527,-6.039 41.742,-10.52 63.304,-13.461 26.223,-3.449 52.442,-4.309 78.489,-2.93 22.421,1.211 44.675,4.141 66.411,8.801 7.07,1.551 13.97,3.277 20.87,5 3.28,1.039 6.73,1.898 10.18,2.93 0.17,0 0.17,0.168 0.35,0.168 3.27,0.871 6.55,1.91 9.83,2.941 3.1,1.031 6.03,1.898 8.97,2.93 1.38,0.519 2.93,1.039 4.31,1.55 5.17,1.899 10.18,3.801 15.35,5.86 0.52,0.18 1.04,0.531 1.55,0.699 3.28,1.383 6.56,2.59 9.84,4.141 3.27,1.379 6.38,2.929 9.66,4.308 3.27,1.551 6.55,3.102 10,4.832 6.21,3.11 12.42,6.379 18.63,9.84 0.52,0.34 1.21,0.68 1.73,1.031 2.58,1.368 5,2.93 7.59,4.309 2.93,1.898 6.03,3.789 9.14,5.691 2.76,1.731 5.52,3.45 8.28,5.348 3.1,2.07 6.38,4.313 9.66,6.551 3.45,-2.75 6.73,-5.34 10.35,-7.758 0.69,-0.691 1.38,-1.203 2.24,-1.723 2.59,-1.898 5,-3.621 7.59,-5.347 5.18,-3.621 10.52,-7.071 15.87,-10.352 3.28,-2.238 6.73,-4.32 10.35,-6.211 3.11,-2.07 6.38,-3.801 9.66,-5.687 0.52,-0.172 0.86,-0.352 1.21,-0.524 1.55,-0.867 3.1,-1.726 4.83,-2.578 2.07,-1.219 4.14,-2.25 6.38,-3.461 1.73,-0.859 3.28,-1.551 5,-2.41 6.56,-3.277 13.46,-6.391 20.18,-9.32 2.08,-0.86 4.14,-1.719 6.22,-2.41 3.45,-1.559 7.07,-2.93 10.52,-4.309 3.97,-1.379 7.93,-2.93 11.9,-4.309 4.14,-1.39 8.28,-2.769 12.42,-3.972 0.52,-0.18 1.04,-0.348 1.55,-0.348 0.69,-0.34 1.38,-0.519 2.07,-0.691 19.32,-5.871 39.16,-10.348 59.34,-13.282 2.25,-0.347 4.66,-0.687 6.9,-1.039 18.8,-2.578 37.61,-3.789 56.58,-3.789 20.36,0 40.54,1.551 60.72,4.309 l 1.38,0.34 4.49,0.519 0.17,0.172 c 9.66,1.551 19.15,3.281 28.63,5.531 171.3,39.668 302.05,183.528 325.17,357.758 16.38,122.641 -20.88,244.602 -102.3,337.063 1.55,25.359 1.55,50.547 -0.34,75.386 0,1.383 -0.17,2.582 -0.35,3.961 -1.55,22.602 -4.48,44.852 -8.79,66.931 -0.18,1.2 -0.52,2.59 -0.87,3.8 -25.7,130.05 -96.08,248.05 -201.82,334.3 10,23.11 21.04,43.64 33.64,62.45 9.31,13.97 19.66,26.91 30.87,38.63 26.57,20.71 55.2,41.58 87.81,50.72 13.11,3.27 26.73,5 41.57,5.18 42.95,0.34 89.01,-11.39 144.55,-29.33 9.66,-2.93 19.15,-6.04 28.47,-9.14 7.24,-2.42 14.48,-4.84 21.56,-7.08 211.65,-83.83 475.58,-119.19 583.56,32.78 l 0.69,1.03 c 25.19,38.3 14.49,94.19 -31.91,166.3"
         style="fill:#ffffff;fill-opacity:1;fill-rule:nonzero;stroke:none"
         id="path36" /><path
         d="m 1472.12,236.262 c 0.52,0.07 1.04,0.129 1.56,0.199 l 0.12,0.059 c -0.58,-0.129 -1.16,-0.188 -1.68,-0.258"
         style="fill:#ffffff;fill-opacity:1;fill-rule:nonzero;stroke:none"
         id="path38" /><path
         d="M 1490.92,166.91 C 1277.08,121.922 1200.92,16.332 1200.14,15.3008 1193.98,6.41016 1184,0.769531 1173.24,0.0585938 1172.46,0 1171.62,0 1170.84,0 1160.92,0 1151.33,4.01953 1144.59,11.4102 1065.12,97.75 865.348,170.34 803.574,191.281 c 20.481,-5.961 41.742,-10.5 63.199,-13.351 26.188,-3.5 52.438,-4.481 78.497,-3.051 22.425,1.172 44.66,4.152 66.5,8.883 56.79,-27.422 113.89,-60.282 156.87,-96.9026 25.14,24.9496 69.09,60.9296 137.28,93.5316 19.32,-5.832 39.22,-10.309 59.44,-13.219 2.27,-0.391 4.6,-0.723 6.87,-1.043 18.8,-2.527 37.66,-3.82 56.59,-3.82 20.29,0.062 40.58,1.492 60.74,4.402 l 1.36,0.199"
         style="fill:#ffffff;fill-opacity:1;fill-rule:nonzero;stroke:none"
         id="path40" /><path
         d="m 1276.16,596.09 c -0.74,-0.36 -1.48,-0.61 -2.34,-0.86 -36.92,-12.308 -61.54,-36.921 -61.54,-73.851 0,-36.93 -36.93,-36.93 -36.93,-36.93 H 1174 c 0,0 -36.93,0 -36.93,36.93 0,36.93 -24.62,61.543 -61.54,73.851 -0.86,0.25 -1.6,0.5 -2.34,0.86 -24.62,9.359 -31.51,30.16 -24.62,50.101 v 0.118 c 2.83,8 7.76,15.882 14.65,22.781 3.69,3.691 8,5.41 12.92,5.66 24.25,1.469 60.81,-34.711 98.47,-41.48 0,0 0,0 0.13,0 37.66,6.769 74.22,42.949 98.47,41.48 4.92,-0.25 9.23,-1.969 12.92,-5.66 6.89,-6.899 11.82,-14.781 14.65,-22.781 0,0 0,0 0,-0.118 6.89,-19.941 0,-40.742 -24.62,-50.101"
         style="fill:#ffffff;fill-opacity:1;fill-rule:nonzero;stroke:none"
         id="path42" /></g></g></svg>
